<svg width="15" height="18" viewBox="0 0 15 18" fill="none" xmlns="http://www.w3.org/2000/svg">
<path d="M1.03814 4.27942C0.85457 3.83295 1.33186 3.32695 2.50671 3.08883C3.68155 2.85072 4.15883 3.08883 4.70955 3.83295C5.11644 4.38273 5.07668 5.32118 4.70955 5.76765C4.19035 6.39906 3.05742 6.06532 3.05742 6.95825C3.05742 7.67261 3.42455 7.85118 3.42455 8" stroke="#7C7C7C" stroke-linecap="round"/>
<path d="M10.0381 2.27942C9.85457 1.83295 10.3319 1.32695 11.5067 1.08883C12.6816 0.850717 13.1588 1.08883 13.7096 1.83295C14.1164 2.38273 14.0767 3.32118 13.7096 3.76765C13.1903 4.39906 12.0574 4.06532 12.0574 4.95825C12.0574 5.67261 12.4246 5.85118 12.4246 6" stroke="#7C7C7C" stroke-linecap="round"/>
<path d="M5 11V11" stroke="#7C7C7C" stroke-width="2" stroke-linecap="round"/>
<path d="M13 10V10" stroke="#7C7C7C" stroke-width="2" stroke-linecap="round"/>
<path d="M6 17L8.94427 15.5279C9.63855 15.1807 10.4041 15 11.1803 15H14" stroke="#7C7C7C" stroke-linecap="round"/>
</svg>
